# xmcd CD database file
#
# Track frame offsets:
#	150
#	33500
#	56665
#	87927
#	105677
#	150762
#	181945
#	210411
#	242172
#
# Disc length: 3542 seconds
#
# Revision: 0
# Processed by: cddbd v1.5.2PL0 Copyright (c) Steve Scherf et al.
# Submitted via: CDex 1.51
#
DISCID=680dd409
DTITLE=Pete Zimmer - Judgment
DYEAR=2006
DGENRE=Jazz
TTITLE0=The Mingus That I Knew
TTITLE1=Down or Up 
TTITLE2=To My Papa
TTITLE3=8 A.M Wednesday Spirit
TTITLE4=Judgment
TTITLE5=Dot Dot
TTITLE6=Bye Bye Blackbird
TTITLE7=Tutti Italiani
TTITLE8=Cut Off
EXTD=YEAR: 2006
EXTT0=
EXTT1=
EXTT2=
EXTT3=
EXTT4=
EXTT5=
EXTT6=
EXTT7=
EXTT8=
PLAYORDER=
